/* XPM */
static char *_f755be0cfe14866e8befc360f58c485Tt4CWTjlUJQJE05Q[] = {
/* columns rows colors chars-per-pixel */
"64 64 54 1 ",
"  c gray1",
". c #030304",
"X c #040304",
"o c #040404",
"O c #040405",
"+ c #050406",
"@ c #070708",
"# c #080708",
"$ c #0A090A",
"% c #0B090B",
"& c #0B0A0C",
"* c #0C0B0C",
"= c #0D0C0E",
"- c #0F0E10",
"; c #110F12",
": c #121013",
"> c #131114",
", c #141215",
"< c #151315",
"1 c #161417",
"2 c #171518",
"3 c #181619",
"4 c #1A181B",
"5 c #1B191C",
"6 c #1C1A1D",
"7 c #1D1B1E",
"8 c #1F1D20",
"9 c #201E22",
"0 c #221F24",
"q c #232125",
"w c #242226",
"e c #252327",
"r c #252427",
"t c #262328",
"y c #272529",
"u c #28262A",
"i c #29272B",
"p c #2C2B2E",
"a c #2C2A2F",
"s c #2D2B2F",
"d c #2F2C30",
"f c #2F2D30",
"g c #302D31",
"h c #312D32",
"j c #322F32",
"k c #322F34",
"l c #332F35",
"z c #323033",
"x c #333035",
"c c #343136",
"v c #363338",
"b c #373439",
"n c #38353A",
"m c #39363B",
/* pixels */
"          .o**@..O O O                 .  ...o. .ooX.           ",
"o       o#&-@o.. OO    O ->5qwyuywq7,;o  o  oo..ooXo..          ",
"o      .o&$o  o.   O $1wakvbbvxkkcvbbxdy7-  . ..@.ooX@oo        ",
"o      Xo@oo  ..   >qxbbxaq3>-$oo$=;5hdhhhu5$   ...@ooooXo      ",
"oo    oooo..     odxchy1$            yhaphhnx8$     .. .oo      ",
"o    ooo..o .  o Oyh7$               ,xpppp7ybx5.   ... oo      ",
"ooo o$o .o ..oqd& o&oo@o o.           ddaahO ;ibu-...   ooo    o",
"ooXo$@Xo..  $axhd>.o&$@@Xo.           qxdpz=   2bk1@    ooX.   &",
"o.oo$      ,hdpphx2O $@o              :xapz=    &db4oOOo@..@@..@",
".oo$      3xxhxhppc7 o$oX             ohphz:      yb9   XX..@..@",
". $      3cx8&4yaxhkq o@@.             addh=       9n7$ .o@@.@.#",
"oo      ;kcq    $4akxy@ @o             yhph*        qn7$.o...o@@",
"o$ X    hcw        >dcp& ...           9xdd@O        tc2@.@.@.@@",
"@o     ycpo          7bh* ..           7xdu          .dh-..@o@.@",
"o     7xx=            &dv2             7hpy           :nt&...@@@",
"#    $hx7o             oun5            5xxq            q5o@.@.@.",
"#    wva. ....           9nq           qkk>                 o@@o",
"#   *hk> @..              qbuo         qkx-              :1o o.@",
"#   qcu o..@...            wba         yka              *cp1.oX@",
"$  #hx> @.@ooo.             ap         acq             $ppx7@.o@",
"o  7vuoo@@oo@o..            >t..      $hx2 O           adahy*o@@",
"$  ac5.$o@@@@@oo            &$oo   O  2xh@            qcaddd2o.@",
"$ -kh$@$@@$$@@X@        ..$$ooo. @O@@ 7by O          :xpapak8@.@",
"$ 5vy $##$$$&&*$o.      @-o..@..@O@ O O>:           odhpadkxu*.o",
"$ wv5O**@@ @ooooo.      ;o.o...&O@@O@.@.O          @ahppdx5-d>OO",
"$ ak-O o@:159qwuyyt85- &o.@o@.@. @O@.@oOoo         ahphpx5  p3 $",
"$$hh==7ypxxzccvccvxxh32....o.@@.@ @O.@O@oo        pzapxh,   u7o$",
"o:cpdhxhhddkaa9,-&@o =; @@oo@..@O@Oo@O@OO.       wxpdzyO O@ qy@&",
"o1hpddpppxy3$        .@..@.@.@@..@.@.@@@@@O    .7zdkh5  .   7yo*",
"o3xdaahhw;           o@.@.@.@..@@@@.@.@.o@     2cxk0    ... 5y&*",
"$7kppxy:o            @o@.@.@@.@..@@..@.@@o    :bh8&      O. 4t$$",
"o7kdx8O  .           o@o@o@..@.@@.@.@.@.o O  &hq$   O     . 5y$&",
"@5xa-  @  @ooooo.....@o@.@.@@.@.@@@.@.@. o@  >$  .        . 4y$&",
"o1b5 o@O@@oo@oooooo..o@o@.@.@@@.@@.@.@@@@oO .  .            8t@$",
"@,bq O @@@$$$@o@o@ooo.o@.@.@.@@@.@@..@..o@  ..            . yw@$",
"o:cyO $$$&**=$$$$@$&@-@o@.@@@..@...@@@.@oo                  p8O$",
"$&xd o&$&==-===*&*-@wu@@@#@.@.@..@@..@..oo                 Ox5Oo",
"@Odk=@$==---=;;:;>&8c$ o@o@@@..@@.@.@.@@o                  ,v>O$",
"@ wb> -$=;-:::,:>-7b2 ..@@.@.@@..@@@@ .@                   7h=O@",
"@ 5bqO-:;:>:,:,1;>ci  ....@@@@...@@@.O..                   hy$o ",
"@ =ka$:=:::1::1:-dx$      o@o@@@@@.@O @y5.                1b4ooo",
"o  ac,$:::::>>,=qv7     .. .X@o@@@@@. >mvd8=              ih-ooo",
"o  7bwo:::::::&7khO     .o....o.. .    &ybvkaw3;  O   *>>qxw..oo",
"@  @zh;;:::::=-px8.     .oo.;X        O O>akkkkxhpuaaahxxhh1O@oo",
".   8x:;::=;-oyzh@      o@@.7d            .2akhppddhapdpahu*OO o",
"o   o= ==:=:@1xhy     . o.@.:n3         .. O.>ydxhdpadappx1$OOoo",
"o      2====@ahx3   O Oo@@o$@zu         .O o   $4yhxxhhpzy= o O ",
"o    .7b>o=o4xph$ O@ OO$@@$$ouc$        . oo.O    @<7qahd;&ooO  ",
"o     4cao@oaddp   oo$@@#@#& 8b7        ..o...ooO O    d8& .O@O ",
"@.    oycq ,zahy  .O@@@$#$$#.2cd         @o.@.@o OO O 4i=@O@ o  ",
"@.     &pn7yhphq..oo@@@@$##$o*hc5          ....o @ @ >z:$O ooX  ",
"@@      :phhpak5Oo@@@@@$#$$#@.ukho        ..@...OOo ;k;&O o@o.  ",
"#$@.X.. o,ahdpx2 oo@@@@$$$#$$.7kkw             . O >x2* ..oo@X..",
". #@ooX.  ,hdpx1 o@@@$$@$$$$$.=kac,             . 0x>&O @@oo&.  ",
"Xoo$@o@Xo..,ahz8  @ @$$$#$$$#@ uhph=             -t-& .O.@X$o   ",
"oooXo@o@oo  :tkkwo  $$$$&*&$$# 2cdhpo             O$OOO ..$@.   ",
"   oooooooo@.$8dxh2  @$$$&&$$@ooahpzh$          .@@..@oo.&#o   o",
"    o   .XooX. :rxbd> O@==&$$$$ 4cpphh$  .$8ho ..o...ooo@@.   oX",
"    oo.  ooo@o..@2qxva5*oo@$@$O oaapahp38dvvto o.....oo$..     o",
"   XoooXoooo##@Xooo:qdxxd8>$oo . :zpahzbxd0;o..o..@@o.o ..    .o",
"     .X.o##$&&$@@O  o=2qyhxkpdqq7uxhfau7,=o..o@oooo@oo          ",
"     ..o@o@$&*=*$$O oOo $=;544777413,=%o..ooo@oo#o..            ",
"   o..@@@oo$#$=;==&$oo  OO@$==-===$$#oo .oo@@@$$#o..            ",
"    @@@&#@*$$$$$&@@o@@O$$$@@o@@@$o@$o#$o#@@@#$$&&o .            "
};
