/* XPM */
static char *_0f3803fe0354634fa589fc23a15af70en37tWIEQkShtOw8[] = {
/* columns rows colors chars-per-pixel */
"64 64 198 2 ",
"   c #010101",
".  c #0B0303",
"X  c #030907",
"o  c #080807",
"O  c #020409",
"+  c #0C0708",
"@  c #010A0A",
"#  c #0C0C0C",
"$  c #140202",
"%  c #1B0303",
"&  c #160907",
"*  c #180D07",
"=  c #130C0B",
"-  c #1B0B0B",
";  c #001308",
":  c #0C100F",
">  c #11100C",
",  c #1E100F",
"<  c #000E11",
"1  c #0D0E10",
"2  c #100F11",
"3  c #011313",
"4  c #0E1212",
"5  c #001A1A",
"6  c #0D1C1C",
"7  c #141414",
"8  c #1B1414",
"9  c #171817",
"0  c #191817",
"q  c #15161A",
"w  c #191718",
"e  c #151A19",
"r  c #1C1C1C",
"t  c #230202",
"y  c #2B0203",
"u  c #220D0D",
"i  c #2C0A0A",
"p  c #340202",
"a  c #3B0202",
"s  c #350C0C",
"d  c #3C0B0B",
"f  c #221313",
"g  c #2A1616",
"h  c #221D1D",
"j  c #2B1C1C",
"k  c #311010",
"l  c #311C1C",
"z  c #3C1F1F",
"x  c #21211F",
"c  c #001524",
"v  c #001F20",
"b  c #1E1D21",
"n  c #211F20",
"m  c #002424",
"M  c #0C2A2B",
"N  c #152424",
"B  c #1E2222",
"V  c #192D2E",
"C  c #232323",
"Z  c #2A2524",
"A  c #272822",
"S  c #292824",
"D  c #262629",
"F  c #2A272A",
"G  c #27282A",
"H  c #2C2B2C",
"J  c #322322",
"K  c #3E2524",
"L  c #342A24",
"P  c #322C2C",
"I  c #3B2B29",
"U  c #25302F",
"Y  c #2F302F",
"T  c #35312A",
"R  c #232A31",
"E  c #2E2E31",
"W  c #322F33",
"Q  c #2D3131",
"!  c #333233",
"~  c #3A3434",
"^  c #383836",
"/  c #363639",
"(  c #39373D",
")  c #373838",
"_  c #3B3A3B",
"`  c #440202",
"'  c #4C0202",
"]  c #450C0C",
"[  c #4C0909",
"{  c #540303",
"}  c #5C0303",
"|  c #560B0B",
" . c #5A0B0B",
".. c #491B1A",
"X. c #5A1414",
"o. c #5D1818",
"O. c #640202",
"+. c #6B0303",
"@. c #620708",
"#. c #640A0A",
"$. c #6B0909",
"%. c #740202",
"&. c #7B0303",
"*. c #700807",
"=. c #740909",
"-. c #7B0A0A",
";. c #64100F",
":. c #660F10",
">. c #641111",
",. c #681919",
"<. c #771011",
"1. c #7C1515",
"2. c #4F2727",
"3. c #552424",
"4. c #572825",
"5. c #522A29",
"6. c #472B30",
"7. c #4F2E33",
"8. c #433333",
"9. c #4B3637",
"0. c #463B38",
"q. c #413D3D",
"w. c #5A3436",
"e. c #602926",
"r. c #633232",
"t. c #67393A",
"y. c #46453E",
"u. c #3E3D41",
"i. c #413E42",
"p. c #3D4040",
"a. c #434343",
"s. c #4B4443",
"d. c #474847",
"f. c #4A4945",
"g. c #464549",
"h. c #48474C",
"j. c #46484A",
"k. c #4A4A4C",
"l. c #5E4646",
"z. c #554949",
"x. c #4D4D51",
"c. c #504F54",
"v. c #4E5154",
"b. c #535254",
"n. c #555459",
"m. c #5B5B5D",
"M. c #624F4E",
"N. c #64504F",
"B. c #675758",
"V. c #5F5F62",
"C. c #5F6160",
"Z. c #636464",
"A. c #67676C",
"S. c #6A6B6C",
"D. c #6F706F",
"F. c #6D6E70",
"G. c #737474",
"H. c #777978",
"J. c #797979",
"K. c #830404",
"L. c #8C0303",
"P. c #8E0606",
"I. c #890807",
"U. c #840A0A",
"Y. c #8C0909",
"T. c #930303",
"R. c #9C0202",
"E. c #940807",
"W. c #930909",
"Q. c #9D0A0A",
"!. c #841010",
"~. c #881B1B",
"^. c #961616",
"/. c #A40202",
"(. c #A90000",
"). c #AC0201",
"_. c #A30A0A",
"`. c #A50909",
"'. c #AC0909",
"]. c #B30202",
"[. c #BB0202",
"{. c #B40B0B",
"}. c #BB0909",
"|. c #C30101",
" X c #CB0101",
".X c #CA0B0C",
"XX c #D30101",
"oX c #DB0102",
"OX c #D10B0B",
"+X c #DC0A0A",
"@X c #E40101",
"#X c #EB0101",
"$X c #E60B0B",
"%X c #F50303",
"&X c #FF0101",
"*X c #FE0202",
"=X c #F00808",
"-X c #FE0909",
/* pixels */
"[ s.q.N 7   7 q 7 q q D p.! r C C C C x r r 8 8 - 8 o                   @ r f h C C C C C C r r C S H P D .     O #     r H G   ",
"_ 0.2.{ - O b F R / / D r r C C C C C r 8 =           ` O.%.&.&.&.*.+.' y     3 8 Z h r r r C r C G D Z B   # #       . X   r r ",
"d.C T.OX| v n C F u.! r r C C C C r 7 $       } &.`.`./.).)./._._._.`.Q.P.R.P.| f 5 5 4 . # r C C S D Z C x D r         p %   r ",
"~ B @.L.i b n b W C 7 r r C C x 7 .     ' P.`._.W.*.{ t                   R.%X#X X/.$.s X   + # 9 C C G C Z C r X   h e i %     ",
"#   6 v D F E E n w r C C r 9 + .   a R./.I.}           = - - - % & & $   % oX&X&X&XXX/.&.' @     # h C C C C C C G Y H o     # ",
"2   C F W W E b r C C C r &     $   p %.%     . 8 8 h r h r r 8 9 # # . %   (.*X-X&X].% } %.$.a       9 C C C C Z H Y ! r     7 ",
"r 1 C b b / b b b C C 9 &   $ a   $     @ j C G Z C C C b r 9 e 9 7 # # $   +.=X-X&X(.      ' $.| &     7 C C D C G H G #     C ",
"0 1 B b b b q n C C 9 %   % [.|.{   % = P _ ) Y H C C r r r r 9 q 7 # # +   $ XX&X&X].  u &   + } #.p     # r C G C G r   o # G ",
"q 1 H H r 4 r C C 7 $   %.XX&X&XoX+.  $ h _ _ Y H C C r r r r w 8 7 = # # %   ].&X&X[.  f h =     ` O.a     . B S G H S e 9 7 Z ",
"q   / D # 7 b C 7 .   &.).[.|.oX*X#XL.  @ Z ! ! H C C C r r r w e 7 7 1 # %   T.&X&X[.  8 h r 7 .   y #.] X   # C S H H G x x G ",
"r o D 9 r b h 7 $   L.Q.      a &.[.XX/..   8 H H G C r C w r r 9 7 4 # # $   %.%X&X(.  - C r r 7 $   % @.d X + r G H Y E H x H ",
"_ H 4 7 b C 7 $   K.`.    % $       { /./.a   - S H C B r r r r 9 7 7 # # =   } #X&X/.  u r r r r 7 .   t $.] 7 # r H Y Y H H ! ",
"d.C 1 r C r $   +.).t   $ # 9 = & $     } L.'   e r C C r r r e 9 7 7 # # &   ` #X&XP.  u r r r r r 7 .   p $.s X + G Y H ! ! / ",
"! 2 r r r =   a ).{   $ 7 r w 9 9 # $ $     O.}     8 r C r r r 8 7 7 1 # &   p @X&X%.  - r r r r r r 4 .   { *.g 9 C Y ! ! Y / ",
"C r r C 7 $   R.K.  % r r r w 9 7 # # o $     ' '     8 r h r r e 7 # # # #   p #X%X{   h r r r r r r r 7 .   +.X.D G H ! Y ! ! ",
"C e n r &   &./.  $ 9 C C b r 9 7 1 # # o . .   p { $   & 9 q 9 7 7 # # # =   y #X@Xt   r h r r r r r r 9 .   % k B Z S Y ! ! ! ",
"C 4 r 8   y {.}   8 C C C C r r 9 7 # # # # o .   t +.p   & 4 9 7 7 7 7 = =   a #X X  $ r x x r C r B r 9 # .   O . 7 G H ! ! ! ",
"C # r &   P.Q.  - C Z C C C r r 9 # # # # # # o .   p U.`   $ 2 # # # # # =   { #X/.  - h C B C C r r r 9 + #   .   e G H H H H ",
"x 4 7   p '.'   n H G G C C B r w # # # o o o # o .   a E.`   & 7 # # # 7 -   +.@X&.  - C C C r C r r r 7 7 + $   *.U.l C S P G ",
"x 7 $   I._.  - H ! H H G C C r r 7 # # # o o # #   $   ' }   . # # # # 7 &   K.oXa   r C C C C r r r 7 7 4 $   ` XX X..C Z H Z ",
"S =     {.O.  Z ) / ! ! H D C r r 7 1 # o X + # # # X .   ,       # o # # %   _.}.  $ C C C C r r r w 7 7 &   y [.&X#X-.J h S H ",
"H &   *.{.  = ) _ _ ( / / E D C r 7 7 # # X # # . o     . @ q r C r e w 7 &   }.Y.  , C C b w r 9 r 9 9 # $   (.&X-X-X(.6.C Z H ",
"S $   Q.E.  Z a.a.p.a.u.u.( / H C r 8 7 # # # X       # 9 9 r 7 C ! ! H H 9   K.{   r C r r r 9 9 9 w 4 %   &.#X-X&X&XXX,.h h H ",
"S     {.O.  ^ j.d.d.d.f.g.g._ W P n h # # # #       # r D C     7 H ! / ! C       . r r r w 9 q 9 7 7 %   ' oX&X-X#X[./.~.~ 8 F ",
"L   O.{.. 7 _ a._ ~ ~ _ Q M m 3           o     o 7 r C H C     7 H ! ! E E C =   # 9 0 9 9 9 7 7 4 $   t |.&X&X#XL.    | 3.< h ",
"J   I.{.  j Z 3 3 @ @ j | $.=.-.%.%.+.' t         r G G H H C C G ! ! W E ! ! G 7   # 7 7 7 7 7 = &   t [.&X&XoX%.  %   ' r.3 Z ",
"L   ).).@   @ [ K.(. XoX@XoXOX}.)./.R.K.' X r o # C G H H H H ! ! ! H ! E ! ! ! G +   7 7 7 9 7 $   % }.&X&X|.{   $ h @ ` t.B P ",
"L X [.XX/.(..X$X*X&X@X|.T.+.y             . S G G H H H H G T ! G T Q Q H ! ! ! Q r o # 9 9 9 &   X [.&X@XR.%   $ r Z   t o.8.a.",
"0.4 |.&X&X&X-X-X XL.a         . $ % $ $ + 7 G H T H ! G H H H H ! T H ! ! ! ! / / Z # 7 7 7 # .   /.#X[.{     - r C G 4 + O.z.x.",
"y.K XX-X-X*XXXL..     $ % & = + + # # # 7 w H P Q ! ! Q Q T Q W ! ! ! Q H ! Q ~ / H r 7 #   .   P.[.&.    $ = r C A G 7 . #.M.x.",
"f.4.@X-X#X/.p     & 8 9 9 9 7 7 7 7 7 8 7 r H H ~ ! ! ! ! Q H C H ! ! H H Q T H ! H C     .   } K.%   . = 9 x B C C G 7 . ;.M.k.",
"y.4.@X+X%.    - r r h r r r r r e r r r 7 r Q ! Q ! ! ! ! ! S C C C ! ! H ! ! Q ! H r       . t     % 7 x C C C C C C 4 . ;.N.k.",
"f.4. X .  % 8 Z H H D D D C C r r x n b 8 C H ! ! ! ! ! ~ / G r q C ! H ! ! ! Q H ! r           = 8 r C C C C C C C C 4   :.l.j.",
"y.5.[.`   h G ! ! ! ! ! ! E G G D D C B r r H ! ! Q ! ! ! ^ ! H G H E Q ! ! ! ! T H e o # # 7 r C C C C C B C C C C h   % :.l.j.",
"T * ].}   Z ! ^ ( u.u.u.u.) ! Q E E H E C 7 G / ! Y ! ! ~ ! ~ ! ~ ! T ! ! ! ! Y ! G #   7 r r C C x C C C C C C C C C   a ,.z.x.",
"I   {.%.  H _ q.g.h.x.x.x.h.a.q.u.u.u.u.P C q Z ! ! ! ) ) ! Y Y Q H H Q ! ! ! H H C   o o 7 7 r r C C C C C C C C C h   } e._ y.",
"L   `.K.  Z a.k.x.n.n.V.m.m.n.b.x.v.v.8.y 8   r ~ ~ / ^ ) Y ~ Y Y Y ! Q ! ! H Y G 7       X # 7 q r r r h C r n h r =   } w.N P ",
"L ; U.R.  J k.n.V.V.V.Z.Z.Z.C.m.V.B.l.| a   . C / ^ ^ ^ / ! ! Q ! ! ! ! ! H H H r       . o # # # 7 7 7 e r r r r 9 X $ O.3.e Z ",
"P   +.'.  C x.V.V.A.A.A.D.D.G.G.G.B.O.O.$     2 G ! ^ / ! ! ! Y ! ! ! ! ! H G S #             # # # # 4 7 7 e 0 9 2   p <.I 7 L ",
"S   y '.[ O c.C.A.F.G.H.H.H.J.J.B.3.&.a   .   # 2 x Y ~ ! ! H ! ! / ~ ! H C 7     $ .       @   o o # o # 7 # 2 4 $   O.:.H r W ",
"h $   R.U.< b.S.S.G.G.J.J.H.H.S.5.+.+.  .     # # # r C / ! Y ! ~ ) ) Y H 7   a       $ $ . . . o . # # # # # = = .   &.3.b n W ",
"h .   %.(.f f.S.S.G.G.G.G.G.Z.9.$.E.$   .   o 7 7 4 # 9 C H Y Y Y Q H r 7 $   +.Q.=.t       . % % % % & % % % & %   ' U.J r Z ^ ",
"8     % ).O.U Z.G.G.G.G.D.Z.z.a '.-.  $     # r r r 8 9 # 7 0 q 7 7 o     # .   ' Q.]./.%.p                       t L.:.C f P ^ ",
"9   $ X L.L.5 b.S.G.G.G.S.z.g T.[.    .   # 9 r r C C 7     . # o     o # 9 9 $     } ).XXoX X].R.P.W.Y.W.W./.[.|.oX(.j h h / ) ",
"8   o X a {   j.S.S.S.Z.m.8.{ XXL.  %   # q r C C G H 4 $ y   . # # # # 7 0 C C 8 &     { /.oX&X&X&X-X-X-X-X&X&X&X@X#.n > Z ~ / ",
"7   #     X   / m.Z.V.m.s.f (.oX`   + # 9 r C C H ! ^ C . =.y   # # 2 # 4 r C C C n 8 $     % K.[.@X-X&X&X&X-X-X%X/.w 8 # H ! ~ ",
"9 X 7     .   @ J b.n.f.C O.@X|.  $ = e x C H H ! ^ q.F X U.}   . = 4 2 7 e r C G G C C 8 -       a &.]. X#X=X&XXX` h O q E ! / ",
"9 4 = #     t } f ~ j.~ @ ).&XR.  - r C S G ! _ _ _ g.)   +.K.  $ # # 7 = 7 r C C C S G G Z h 8 $         ` O.(.L.3 & X G Q ! ! ",
"r 9 7 # .   $ Q.#.@ ~ e } @X=X*.  - C H ! ! / _ a.a.a.(   ' (.$     o # # 9 r B x C G G G S H S C C g f +     ` ] 0   r E E ! ! ",
"C r r 7 # . X | Q.s X O /.&X#X}   h S ! ! _ _ a.a.d.h.p.h   '.%.  $ X # # 1 9 r x C C C G H G G H H ! H r . $ y j   # C H H E G ",
"H r r q 7 # .   $.U.  t oX*X@Xa   Z H ~ _ _ a.j.d.d.d.a.Z . W.].  $ . o # 7 7 8 r C C C S G H H G H H C     t f o   r H G H G D ",
"~ C r x e 7   .   $.}.oX%X&X+X%   S ! ^ ( a.a.h.j.h.j.h.!   } XXO.  $ o # # 1 9 r r r C C Z G G H G r     y g 7 o b H H S S G G ",
"x e C D b r 8 +   - U.@X&X*X+X4 h P Y ^ _ a.g.g.h.k.h.h._ #    X|.  . .   # # 9 7 9 r r B C C C S r     p ..e   2 G E H C e 7 r ",
"#   h D D C r r 9 r g &.XX&XOX@ h P ! _ a.i.d.h.h.x.x.k.s.n   T.#XL.  %   o # # 7 7 9 r h r x C r   . p z N   # C H D n r o   # ",
"r r C R H H G S C H Z i +.XXOX    f H ^ q.a.d.d.x.x.x.k.g.P   a @X@X}   %   o # # 1 9 9 r r r r X   - j q   # C E H C b o     r ",
"8 r D C E / / ! ! P Z C g  .`.W.%   $ n ^ d.j.h.x.x.c.k.a.^ -   '.&XOXa   $   o # # # = 7 1 o       7 r   # x G H E D 9     # r ",
"7 1 D D H _ ) ( / ! H Z x h d W./.+.    8 H a.k.b.n.v.x.a._ Z   { $X-X|.p   %   + $ .     .         + 7 e C G H E E G #     # w ",
"= 7 b G _ p.y.a.a._ / ! H r r 8 #.R.T.{     e i.h.x.n.z.f.a.W &   `.-X&X|.a           p p       X 7 7 x C G G H R C D r X   # r ",
"o     6 _ k.a.u.a.d.u.) ! S x x @ u $.Y.I.} s 6 c R q.a.i.^ P f   ' +X&X*XXX+.% ` +.&.*.d @ = 9 r r C G G C 8 C H C H C = .   r ",
"C # p a h / G r H a.k.g.u.) H x .   @ i #.!.P.K.@.] l C 3   @ 3 -   |.-X&X%XXX/.T.!.>.x e r B C F H G H H G X 7 9 H H &     . 7 ",
"!   ' O.@ q 7 q n W u.g.k.k.u.! C #     @ = ..,.1.~.&.O.O.{ a p t t (.|.(.^.1.,.z r 5 7 8 B G Y H H H ~ H j t   . / Z   &.K.  8 ",
"^ w O   C # # r D R E u.k.x.x.k.u.E r = .   @ X V I ..r.t.t.w.7.6.7.w.9.I V M 3 @   o r C H Q ! / _ p._ H a ]   - ( Z   $.-.  - ",
"P / Q C # # b G W W R u.h.h.x.n.k.a.^ G r 7 .       N j.v.b.v.x.h.k.b.d._ 8     + r C H ! ) _ a.j.k.k.d.H -       _ y.F     =   ",
"d P d.d.D C ( u.( u.u.g.x.h.g.h.h.a._ ) ! ! H H H H C C C C G H G C D P P H H D ! / / ) _ a.f.k.b.b.b.b.b.a.~ ^ a.k.k.a.G h   p "
};
