/* XPM */
static char *e9237b48f7a54757d7bf6f30424e55f9AKMWgAuiqJVOlyOc[] = {
/* columns rows colors chars-per-pixel */
"64 64 43 1 ",
"  c #1B1919",
". c #1C1A1A",
"X c #1D1A1B",
"o c #1E1D1D",
"O c #201B1E",
"+ c #211D1F",
"@ c #231F1F",
"# c #221F20",
"$ c #221F21",
"% c #232020",
"& c #232222",
"* c #252222",
"= c #252424",
"- c #242425",
"; c #252626",
": c #272627",
"> c #292527",
", c #282728",
"< c #292728",
"1 c #2B2728",
"2 c #2B2828",
"3 c gray17",
"4 c #2C292A",
"5 c #2B2C2B",
"6 c #2D2B2C",
"7 c #2C2C2C",
"8 c #2E2C2C",
"9 c #312E2E",
"0 c #2F302F",
"q c gray19",
"w c #323030",
"e c #333131",
"r c #323333",
"t c gray20",
"y c #343334",
"u c #343434",
"i c #353636",
"p c gray21",
"a c #373637",
"s c #363737",
"d c #383737",
"f c #373838",
"g c #393939",
/* pixels */
"333777t7ttt7tt7pppdpfptt663yt7t077333333770qqttqqqqpaydpfptt667t",
"3337777tt77t7ttppdffpptttt3t77777333333373qqqq7qqqqpaddfpptttt7t",
"3333337t77t77t7dpfggfpttttyt7tt7t7333333337q7qqq7qqpddfffptttttt",
"333333777t7tt77ddfgfppttttt7tt77773333333:qqqq7qtq7pfggfppttttt7",
"33333377t7777t7gggppptttttt0t7ttt773333333q7q73t7t7ffgpfpyttttt7",
"737333t777ttt7tppsgptttttttttttpp7q73773377q70w777tsfpppyttttttt",
"777777t77tt77t7ggsppyttt0t7tttttyt7qt77q77qqq77tpt9sffdptt0t0t7t",
"ttttt77t777tpptgpppytytpt0t70tptttttqqt0q7qq7qttttupdppptttttt7t",
"twt77t7773700tt333333377t77ttt7tqtttt0t7t77955500tt333333777t7tt",
"ttttt973<:37ttt:333333333tt777t37ptttttt7t66:<3770t3333337757tt7",
"tttt7t33::>35033333333:37t7t7ttt3tttttttqq33>;<47075337333337t7t",
"ttttt03>*#%%#::73333333:77t3t7733ttt9tttt03<%%%%%::3337733:,7707",
"wtttuw5:*#OO#;;577733337t7t3t07t7p7utttt003>*O%%%:-77777333377t7",
"ttttpu3>##X.o#;733t33337373t77t75tttwtpypp3>OO..o%;773777333t777",
"rrtwpu4<*#O.o;;77tt7t377t7777p0rttttttttpu3:*O#.o;&q7t7777377tt7",
"uprpppew74<>377rp7tt7t7t7t3ttrruttttttypupyt74>>377uttttttt7t7t7",
"ttttppttw36:4tqtttt7t9qq97755t0rttttttttpttt94473t5tttt3ttq7q763",
"ppputuett0ttt77tttttttq744>:4300t0tuppppwtttttp7t3ttttttttqq63<:",
"ppuptttttttptqqtttttttqq55;>:3707utupyppptttttptt37ptttt9t7q36:-",
"upppptt9tt779qqtqtttttt07>**%%%::uuuppppptt0qq7ttt3ty9ttttt03<*#",
"pppptt7t3t7t003tuqqyquyq4<*O#%#--rpfpgpptt6t7t7t777tttttuur9<>*O",
"ggpptt7tt3t7t33ttuuruuuu4>#O...*%fpffpsptt3t0tt7t07qttttuuut3>%O",
"gpgp7tttttp77tttqturuusu41##o.o-*ppfggppttytt7t37t7ttt7tuupp44*#",
"ggpptttt7tt7t75t0tuuuupuwt64<<>37fpggpptttttt7ttt7ttttrpuutptr44",
"fguutttttt0ttttwttquttppt9996<6ttfgpgdpttttttt3ttut0tuuuuupuut97",
"ppptttttt0ttttttttpspttpttttqtt7rpgpppptttttt0tttrtttuupuuuuuutt",
"pdtt0t0t7t7tttttyyuppppt0tttt0tt7pggpdtt0t0t77ptttut0upupuuuwttt",
"ptttttt0t7tytpttqppppptpttt7tt70rppppttttttttt7pptuuupppppuuttt7",
"4533677tt7t7t7ttfupfppt67tt7t77q7,<3433677t7wtur0ttypppppptt570t",
"333377t77tt77tpppffffptttq7t7tq773333337737t507407tppdffptttttt7",
"3333337tt7tttt7ppsgsppyttt77tt7t07333333337tt57t7u3ppdggpptt7tt7",
"333333777t77777gfggggpttqtttq7t70733333333777tr7r74gdggpgptttttt",
"773733t4q77t7t7gpgsppyttttwt7tqtt777773333q7q77t7qqpggpppyttttt7",
"777735337q77t7tfgfspytttttttrttpp777q773577q7qq7qqwspfgpyytttttt",
"t777777pq7qtqt0fpgpptytt007trryyu0qq7q7q3477q7qtty0sfffuyttt0t7t",
"ttqqqt7t7q7ttttppppuyttu0tt7trttutt0tt7tt3pt7qqttypspppuyttttt7t",
"t7tt7t7773370tu3333337770qqttqqq7t9tttqqq7q6333t3yr53333777777tt",
"ttqtt7663:6700t333333777w0qq7tqq7tttttttt063>:377t03,33357730t07",
"tttt7t33::3330033333,3337q7qt77ttttttttqq743:-<3700373333333770t",
"tttttq3>*####:,3333333,,q7qq77t75tttttttt06<*#%#%,:5533333:3tt77",
"t9ytt03:*###*-,3777777337t377t7qttttttttt03:*####::7t7773377777t",
"ttttpy3>#Oo  **37777773373t3t9qq7tttttttpt3>#O.  %:7777733777t77",
"tttppp3>%#..o--yy77777777t3t77tt7tttttttpt3>O*..o:*0t7777777t77t",
"tttttptw744><63tyttttt7t0t77ttttpt9tttpppgt7941>353ttttt7tt77t77",
"ttutppu0t34>3t5t7tttt7t7w755700uttrrruttptte99433t3tttt7ttt79773",
"ppputrttr7rtt7ttrttttt7t43>:57000trrpppyptttttt0t3wtttttty7y76<:",
"pupppeeettttt3wtrutt0tt755;<<570qttuptpptttrtttttq0tttttt73733:-",
"pppptttttt9t7t7ttttttttt<7%%###;:ttupppptp9r90t07t7t9ttttpty3<*#",
"ppfptt5t7t7t777pttttttrw5:*OOO*<:pppfpfpttt7t7t7tq7tquutttuq5:%#",
"pfppttt7t77tt73tp7wtttpr3>#O..o%Oppdfsdptp7t7t77777tuqqtttuu3:o#",
"gpgpttt0tt77t0ttttttttpt33*OO.X:<ppfgfsptttttt7tq7ttruuuttpt44*#",
"ggpp0tttt7tt703ttttttppp9t742><77pdfggpp7ttt7tttqt7tuuqutppptw6<",
"gpptyyttttt7ptttttttttppte794437wpgffpppptttt7t7ttttqtuupttpww99",
"pptttttttttyttp7typpppttett0ttttrpgpppuytttttttttttuttuppptpyttt",
"gpttttwt773pytttttptppttetttttt7tppgppttttt07ttytsuuttuutptttptt",
"puttttt0ttttppttyypppptttt9u7t7t7gpppttt0t0tt7ttquyutupppppp77y9",
"33333333377ttttpppppfptt7tt77t077733333377t7ttt77u9ppffpppt7tt7t",
":33333737tt7777ppddfpptttt7tt7q773333333737tq7t7tq9pppfsppttt7t7",
"33333333377tqq7gdffdfpttttt77t7tt7333333337t7t7q7ttpppgdppttttt7",
"3333333337t77q9pfgggdpttttqtt7t7773333333377t7t7776dfggggptt7ttt",
"777773333qt7q7tpfgffptttttqt7tttt7773333777qt77tt7tpgpgdppttpttt",
"7770773337777r0pppppytttttqttttttt75377377q777q77tqpffppyttttt7t",
"t7tq7qq77tt77qtpggppttttt07t7pytttw0t77777t77qtqqttpgpppttt0ttt7",
"ttqtt7t7t77t70yppppttttt0tt7ttptttt7t0tt7t7qq77tttpppppttttt0u7t"
};
