/* XPM */
static char *_43f84cf6ae445fdba514d0b55d4f5e4LhFhTqymdWT0m2Sl[] = {
/* columns rows colors chars-per-pixel */
"64 64 69 1 ",
"  c gray4",
". c #0B0B0B",
"X c #0D0E0E",
"o c #0F0E0E",
"O c gray6",
"+ c #110F10",
"@ c #101010",
"# c #111011",
"$ c #131313",
"% c gray8",
"& c #161616",
"* c gray9",
"= c #191618",
"- c #1A1919",
"; c gray10",
": c #1B1B1B",
"> c #1C1919",
", c #1D1B1B",
"< c #1D1C1C",
"1 c #1F1C1D",
"2 c #1E1D1D",
"3 c gray12",
"4 c #201B1E",
"5 c #211D1F",
"6 c #221F1F",
"7 c #231F1F",
"8 c #211F20",
"9 c #221F21",
"0 c #232022",
"q c #212222",
"w c #232323",
"e c #252222",
"r c #252424",
"t c #262426",
"y c #272426",
"u c #272527",
"i c #252626",
"p c #2A2727",
"a c #282728",
"s c #292728",
"d c #2B2728",
"f c #292828",
"g c gray16",
"h c #2B2828",
"j c #2A2A2A",
"k c #2B2A2B",
"l c #2D2A2A",
"z c #2B2C2B",
"x c #2C2B2C",
"c c #2D2D2D",
"v c #2D2E2E",
"b c #2F2F2F",
"n c #312E2E",
"m c #2F302F",
"M c gray19",
"N c #303131",
"B c #313232",
"V c #323332",
"C c #323333",
"Z c gray20",
"A c #343333",
"S c #343334",
"D c #343434",
"F c #363737",
"G c #383737",
"H c #373838",
"J c gray22",
"K c #393838",
"L c #393939",
/* pixels */
"MMMMDMDDDDDLLDDDbNNbbbNNNNNNNNmDDDMMMMDDDMDMDLDLLMMMmbNmmNNNNNmD",
"MMDMMMDDDLLLLMMMNbbbbbxxbxmmmNNDDDDmMMDmMDDDDDLLHbbbbNbxxbmxNmNm",
"DmDDSSDDDDLMDbMMbbbbbpxhgmxbmxxDDDMDDNMDSMDDLDLSDbbbNxbxhxhbxbbb",
"mmDDSSDDLLLLLbbMNhbbbbhbxxhxxmxNDmNNDMDDSDDLLGLLLbbbxmxdbgxzxhNh",
"mDMDMDDLLLLLLbbbbbbbNxzhjgjxzjzNbbbNmMDMMMLDLLLHGbMbbbbhjxjxhmgx",
"MMDDDMLDALLDGbbbbbNbNbhhhgzxzxzNbNMbmmDDNSDLHLHHDbMMbbbljggfxjxg",
"MMMMDDDLLLLSDMbbbbNbNbbhxzjjjgjxbbNbMMMMSNDHLDLDGMMMbMbxzmjmgmjj",
"MMMMMDDLLDLGDMMbbNNbNbbbmzxzxjjmbbMMMMMMDDDLLDLDDMMMbMbbxzxgxjxg",
"MMMMDDDHMLLDDDDDDMMMMMDmDDDDDKKMbMMMMMMMDDLDHDHMDDDDDMMMNNDDDDDD",
"DDDMDDDDDDDMMDDDDMMMDDmDMDDKKLFMbMMDDMDMDDDDDHDNMDDDDMMMNNNNNDDH",
"MADDDDHDDLDMDDDDDMMDDmDmDDDLFHDMbbMMMAADDDLDDDDNDDDDMDMDNDDDDDDL",
"nMMDDHDDDDDNMMDMMMDDDDDDDDDLFLKmMblMnnnDDDDDDDDDDMDMMMDDNDDNDHDL",
"lbnMDDDDDDDDDMMMMMMMDMDMLDLLLKKmbdhhlzNMLDDDDDDMMMMMMMMMDMDMFLFL",
"50llDLDDDMNMMMMMbMMMMDMMKKKLLDDr01:165dlDHDMNhwgMMmMmMMMMDMDDFLL",
"18phDLDDDMDDbbNbbbMMMDSSDFFLFHFq01;:56hlDLDg&&&*:0mbMMMMMMDmDKKF",
"8ephMMMADDMMbbbbbMMMMMmDLLDFLDDtw0055ehpNMh@X$;&@X0bMMMMMMDDDFFF",
"8edhNNSMDmDMMMNmMMMMDmDDLDLDHDDtw0q000ghNN:X:www;.&bMMAMMMDDGLDD",
"tdzxNbNDDDDMMlttmDMDDmDDDDDDDMDMNzhgtgxxmg**wwwwq*&tMDMDDDDDDDDG",
"tthhbNSMDDDt&&&&;fmNDDDDLDDDDMDDNmbhtihxm0*;wwwwq;&tMMDMDDDDDLDD",
"lbbbNNNNmmfX.&;&OOenDDDFDDDDDMMDNNmbhxxmmg$*wwwwt**0lznnMDDDDDDD",
"xmNNbbbbNm;X;www; +lnmDDDDDDDMDDDDDNxmNmmm$X;www*O-fhfllMmFDDDDD",
"NxbNbbbbNt&&wwwwe&X;llDDDDDMMDMMmMmNmxmmxxqX@*:$..:1;15elbDDDDDM",
"xmxmhxhbm3&;wwwwe;O=ppDLDDDMDMMMbbNmmmmxjxhq*$$$$;q:;:56phDKDDDM",
"Nxmxxhbpxq$*wwwww&$;hbMMDMADDDMMbbbbxNxmxxxxgqqqzqr0565ephMMADAD",
"mbxmgghjxg@ ;wwq;X+8ghNNDDDNMDMMbbbbbbbbhgxjmgjmzi00eq00hhNbSDDN",
"NmNxghzhzx3XX*;* X1pxxNNmMDDDMDMbbbbMbbbhhjjjzjxzmNzhttipbbbSNDM",
"bbNmxbbbjxzq**&$$1tdhhmNSDDNDDMNbNbbMbbbxxblxmgjhDNNmhthhhNNNDDN",
"mNbbxbhhxxxgththxxbhxbmNNmNNDMDmmbbNMbbbbhbMjjjjzDNbNbghbbNbbbND",
"NNDDmDDSNHDLHDDDNNxmmmbNbNNNNmmDDDDMMMMMDMDMDLHDFDDDNNbbNNNBMMMM",
"NbMMMMDDDHLLHNMmNNNxbbxxbbbbNNNDDDDMMMDMMMDDDDLLFNmmNmbbmNxxMbMM",
"bMDDDDDDDHHDDmNbNbbmbxhbpphbbNbDDDDMmDDDSNSSDLDLDbmmNmxmxmxhzbbb",
"NMDDDDDDFHLHLNmmmbbxbbxhbbbxhxxNDMmmDmDDSSDHDLLLLbNmmxNxNxgxhdbh",
"MMMDNDDDGLGLMbMMbbbbbNhhgjgxxhhmMMbMMMDMMDDDLLFKKmbbbbbbbbhhxjxz",
"DMDMMNLLLLLLLNMMbbNbNxhhjjxgjhbNbMbbMMDMDMLLLLLKDmbbmMbbbbppjjjx",
"MMMDDMDLALLDDMMMbbbbNNbzxmjmmghmbbbbMMMMDDDLDLDHDMbnMMMMbbbbxjxj",
"MMMMMDDLMLLDDMMMbNNNbbbmxgxgxghmbbbbMMMMmDDLLFFDDMMMMMMMbbhbmjmj",
"MMMMDDLHLLDDDDDDmbNbDmDmNDDFDLLmMMMMMMMDDDDDDFDDDDDDDMMMNMNNNDDF",
"DDDDDDDDDDDDDDDDDNbNMNNDDNDHLLKmMMDMDDMDDDDKDDDDDDDDDMMMDNDNNBDH",
"MADDDDLDDDDNMDMNDDDNDNDNDDDFFDDmMMMMMMDDDDDDKDDMDDDDDDMDDDDSDDDH",
"nnMADDDDDDDMDMDbMMMMDDNDHDHHKLLmnMlbnnAADKDDDDDDmDMMMMDMDMDDDDHH",
"lbmADDDDDDDMDMbbMMMMDMDMDLLLLHKmMhihllMDDDDDDDDMMbbbMMMMNNMDDLLL",
"58hlDDDDDMMDMMbbMMMMMDMDDLLLLDDt01<45rhlDDDDDMMDMbbbMMDMmDDMLDLL",
"40hhDDDDAMMDDMnbMMMbMMDDDLDHKLDte<;<55fhDFDDAMMDMMbbMMMMMDDDDHDL",
"5ephDMDDAADMMMNbMMMNMMMDDHLHDDDte8486qfhMMDDDDDMMMbbbMMMMMMDDLDH",
"8eddMNDMDMDMMMbNMMMMDMDDHDHHDDDdi988,;6fMDDMmDDMDNbMMMMMMMDDLHDH",
"iizxMNDDDDDSDbNSDDDMMDDDDDDDDDMMbb8X++$*tMDDDDDDDNMMDMDDDDDDDDDD",
"ddlxbNmDDDDDSMNbMMMADDDDDHDDDDDMMiX *;*OOqMMMDDDAMMMNNMMDDDDDLDD",
"zdbbNbNmMMMMMbNhlnnnADDDDDDDMDMDM:X:t0q;.*mMMDMMMMMxllnnADDDDDDD",
"bbbbxNNNNNNmNNxhddlnnSDHDDDDDMMDh**rwwww**wNNNNNMMbpellnnSHDMDDD",
"xbbbmxmxNNNmmt01=848dlDLMDDDDMDMq*;qwwww:$qmmNNNMt01,548plDLDDDD",
"bxbbzxgvmxxmMiq::<59pdMDDDMDMDMbh$&qwwqq*$qxxhmmNw01;:10pdAMDDMD",
"bbzbxjxxfxmxxww08989pdMDMDNDADMbb$X:ww0;@*ghmxhxztq0063epdMDDMDD",
"bbbbidgjzgzmxtwww999gdNNDDDMDMMNm0XX*;&XXqxgjxjxztqq003ehhNDMDNM",
"bbbbzdjhzzzhzmmxziiuzzbNmDDMDDDMmmg***$$:hgzxhmgzmmzzfttzhNMDDDD",
"bbbbbzxxhxhxzDNmbddizzBNMDDDDDMMmmmxiqixxmxxgxbhhDmmmhtgzbMMMDDM",
"NNNbxbbhzzzzhDmNbvddbbxNMMMDMDDMNNmNNmNmxxmxxbhlzDDmmzhbbbMMMDMM",
"mmDMDMSSDDDHLDDDbNBbbbNNbbNNmNMDDDDMMMDNDMDMDLDLHDSSbbbbbbBNNNNN",
"MmDDMMNSDHHHHMMMbbbbbbvxbmmmNNNDDDDMMMMDMDDDDDLLHbNNbbbzbbxxxxNN",
"MDDMDDSDHHDHHbMMbbbbbdxhhbxxmmmDDDMDDDDDSMSSLDLDDNbbNbbbbbdhhxbx",
"DMDDMDSLHHHHLbbMbzbbbbhvgxbxpbxNmmMMmmMDSSDHLDLLLNbbbbbbbzdbmxxh",
"MMDMMDDDLLLLDMMnbbbbmxgggxhmxgxmNbMMmmDMMDDSGLLGHbbbbbbbmxggggxz",
"MMMDDMLLDLGLDMbNbbNbmmgzhgxgzxzNbNNMDmDMDMLLLLHHSMbbbbNbmmgjgzhz",
"MMMMDDLMLLLMDbbnvbvmmmmxxxgxxgpbbbMMMMMMDDHDDLLDDMbnbbvmmmmxxjxx",
"MMMMMDDLLDHHDNbNNNBBmmxmhgmjxphbbbMMMMMMMDDLLDHHDMMMNNNNmmxxmgmj"
};
