/* XPM */
static char *_6f50526a37b4701ecb78a21db84884aWK7CZcfalo7UNvwq[] = {
/* columns rows colors chars-per-pixel */
"64 64 69 1 ",
"  c gray1",
". c #040303",
"X c #030402",
"o c #040402",
"O c #040304",
"+ c #040404",
"@ c #060606",
"# c #060707",
"$ c #080707",
"% c #060904",
"& c #070806",
"* c #080A01",
"= c #080A05",
"- c #080F04",
"; c #090C07",
": c #080708",
"> c gray3",
", c #0B0B0B",
"< c #0A0D08",
"1 c #0B0E09",
"2 c #0C0F0A",
"3 c #0A1105",
"4 c #0C1307",
"5 c #0D1408",
"6 c #0F1609",
"7 c #0E110C",
"8 c #101806",
"9 c #10170A",
"0 c #101A08",
"q c #131B09",
"w c #10180A",
"e c #11180B",
"r c #131E0B",
"t c #141D0B",
"y c #12190C",
"u c #131A0D",
"i c #161F0E",
"p c #16200D",
"a c #16200E",
"s c #17210F",
"d c #18210F",
"f c #1C2D0C",
"g c #1D2D0C",
"h c #1D2E0E",
"j c #1F300F",
"k c #203010",
"l c #203111",
"z c #213212",
"x c #223313",
"c c #233314",
"v c #233414",
"b c #2A4016",
"n c #2D4515",
"m c #2E4717",
"M c #2E4916",
"N c #2F4718",
"B c #2F481A",
"V c #314A1B",
"C c #334C1A",
"Z c #334D1B",
"A c #334D1C",
"S c #36531B",
"D c #36531C",
"F c #37541C",
"G c #38551D",
"H c #3B5A1F",
"J c #3C5C1F",
"K c #3D5D20",
"L c #456A24",
/* pixels */
"Gl1@#@@@@@@@  @@       ..@$@@@@@@>@@@@@@ @ @        @@@@@@@@>aBm",
"lGl1::@@@@@ @@@ O      ..$@@@@@@>@@@@@@@@@@@        @@$@@@@=aVV9",
"1lGl1@&@@@@@@ @        @$$$@@@>>@>@@@@ @ @@@     . O@$@@@@>aVZw@",
"@1vGv1@@@@ @@@@@@@ @   .$:@@@@@>>@=@@ @@@ @@@    .O@$$:@@=aVZw@&",
"@>2zGz2:@    @ @@@@@>>>>:>>>>$>>>@>@     @ @@@@@@$>>>>>>=aVAw:@:",
">@:9cKz,       @@@@@=>>>>>>>>@>>@>@# @   @ @@@@@@$>>>>:1aVAu@=:@",
">>>>,zKk&X    @@### ::>>>>>>>>>>>>:@ @    @@@@@>@>>>>:>dVAu>>>@@",
">>>>:1cDl&  @ @@###:::>>>>>>>>>>>>@@    @ @@@@>@$:>>>1dVAu>>>>@>",
">>>,,>2vFl=o@@@@@>@>@>>>>>>,>,>,>>>> @    @@@>@>@:>>1iVZu>,,>>>>",
">,,,,>>7jFk=XO@@@>>@>@@>>>>>>>,,,>,> @ @@ @@@>>@::==aVAu>>,,,>,>",
",>,,>>2:=jFk&X@@>@>@@>@>>>>>,>,,,>,>      @@>@#&@:&aVZu>,>,,,>,>",
">>>>,,>>X&lFk@@@@>@#>@>@@>>>>>>>,>,>  @@ @@@@>@@&>iVZw@>>>>,,>,>",
">>>,>>>>  =lFj;&@@#@@@@@>>@>@>>>,>>>@ OO@@@@@@@@>aBAu@@>$>>>,>>>",
">:@:@X>>@&@ojFj&@@@@@@@@@>>>@@@@@@@>@@X     @@@&aBZw@>>>@@@@@@:>",
"@O@O@@@>&@  XfFj=@@@@@@@@>>>@@@@@@@>>@@     @@&iMZ5@>>>>@@@.@@@@",
"@@@@@@@@@@   XfFh1@@@@@@@>>>@@  @@@@@@X      @iBZ5@@@@>@@@@@..@@",
"@@ @@@@@O@     gSl2$@@O@@>@>@@@@ @@@.      .oiVZ5@o@@@>@@@ @@@ @",
"@@@@ @@@       .kGl2o@@@@@@@@@ @@@@@       otVV9@@@@@>@@@@@@ @ @",
"@@@ @@@         =lGl2@@@#>@@@@@@@ O@      .wNZw@@@@@>@@@@@@ @@@@",
"@ @@  @@        $;vGl;@@@@@@@@@ @@@@      8NV9$@@@@@##@@@      @",
"@@O@@@@  @    .>$$2lGl2$@>@&@@ @  @@@    8NVu#>@@@>@>@&@       @",
"@@@@@ @@@    ..@$$@2lGl1>@&@@ @@@@ @@   8mV9>>:@@@@#@>@&@@   @@@",
"     @ @@@@@@$>>$>>>2vGl2>@@       @@@&iVZw>>>>>@=@@>@>@      @@",
"X   O  @@@@@@>>>>>>>@7lGl2#@ @  @@ @@&iBZu>>>>>>@@::@>@> @  @ @@",
"@@    @@@@@@>>>>>>>>>>7vKz::X@    @@&aBZw>>>>>>>,>>>>>>> @@   @@",
"    @ @@@@@>@>>>>>>>,>>7zKc>X&   @@&iBZw>>>>>>>>>>,>>>>>    @ @@",
" @  @ @@@@>@@>@>>>>>,>,,,cKz&oX@  @iNAw@>@>>>>>>>,,,>>>>  @@ @@@",
"   @  @@>>@>>@>>>>>>>:22,,lKl@@X@@rBA9:=@>@>>>>>>,,,,>>>     @@@",
"@ @  @@@@>@>@>@>>>>>>>>>,>7vFl;X@rVAw:@:>@>@>@:>>,,,,>,, @ @@ @@",
"  O   @>>@>@>@>@>>@>>>>>,>#7lFh1rVVw:@:@@>@>@::=>>>>,>>>     @@@",
"  @ @@@#@>@@@@@>@>@>>>>>,:,:&lFbMVw>@@#@@@@>:@@::>>,>>#@  @  @@@",
" @@@@@@>@@@@@@@>>@@ @  @:@@@@=bLHi>>@@@@@@@>@#@    @@@@@@@@@@>>>",
"@ @@>>>>@@@ @@@>@@      @@@@@iVKHl2>@@@@@@@@@@      @@@@@. @@::>",
"@@@@@@>>@@ @@@@@@@      O@@=rMVilGc2@@@o @@@@@      .@@@@@@@@@>>",
"@ @@@@@>@@@@@@@@@       .@=aBV5@7lGc;@@O@@@@@@      .@@@  @@@>@>",
" @@@@>@@@@ @ @ @..      @=aBA5@@@2lGl=@@@ @@@       @@$@@@@@@@@@",
"@@@@#>@@@@@@ @@@        @iVVw@@@&@1lGl1@O@@@       ..@$@@@@@@>@@",
"@@@@#@@@@ @ @ @ o      .tVZ9@@@@@@@1lGl=@@@        .@@@@@@@@>@@@",
"@@@@&@@@@@@@@@ @O   . .iVZ9@@@@>##&@1lGl=@@        @$$@@@@@>#@@&",
"@@@@@&@@@ @ @ @@@   .=wVZw@@@@>@@#@@@1lFl=@@@ @     $$$@@@>@>@&@",
"#>>>>@>@@    @ @O@@@=sVAu>>>>>@>>@>@  @jFj=@@@@@:>>>>>>>@@>@>@>@",
">@>>@>@>       @@@@@aVAu>>>>>@>>@>@>@  &jFl;@@@@@,>>>>>>@>>>@>@>",
">>>>>>>@ @  @@@@@:>iVZu@>>>>>>,,>>>@@   =lFl1@@>##>>>>>>>>,,>>>@",
">>,>>>@> @    @@@=aVVu>>>>>>>>>>>>@>    @=lGl1>@>>>>>>>>>>>>>>@>",
",>,>>>>>@     @@&iVZw@>>>>>>>>>,>>>>@@ @X@=lGv7@#>@>>>>>,>,>>>>>",
">>,,,>,>  @ @@@@aVVu@#@>>>>>,,,,,>,> @ @ X@;lGl1>@>>>>>>>>,,,>,>",
">,,,,>,> @@   =aVZu@>@>@>>>>>>,,,>,>@   @ @@2lFv7@@>:>>>>,,,,>,>",
">>>,,>,>    @&rVA5@>@>@>@>>>>,>>,>,>  @  @@@@7vFl1>@>>>>>>>,,>,>",
">>>,@>>>@ XX@rBA9@@@$@@@@#>>@>>>>>>>     O@@@$2lFv1#>@>>>>@>>>>>",
">@@@@@:#>@@X8MM4@@@@@@@@@>>>@@@@@@&>@@@     @@@;lFl1@>>>@@@@@@>>",
"@@@@@@@@@@&wnm3@@@@@@ @@>>>>@@@@@@@>@@      @@@@1lFl1#>>@@@@@@@@",
"@@@O@@@:@=rBM&  O@$@@@ @@@>>@@  @@@@@@     .O@$@@1lGl7>#@@@@@@@@",
"@O@ @@@@&tmM3   .@@@@@@@@@@>@@@@@@@@ @      .@@@@ ;lFv1#@@ @@@ @",
"@@@  @@=rMM%    @@@@@@@@@>@@@@ @@@@@        @@@@ @@1lFl7@@@@ @ @",
"@@@@@o&tmM-     @@@@@@@@@>@@@@@@@@@@        @@@@@@@@1lFl@@@ @@@@",
"@@.@@@rBV4      @@@@ @@@>@@@@@@ @ @         @@>@@@@@@7lGj%     @",
"@@X@@iMZ5oO   .@:>:@@@>@#@&@@@@@ @ @      @@@$$@@@@>@&1vFk% XX@@",
"@@@&rMV5@o.O  .@>>@@@@@>@:@&@@ @@ @@@ O  @ @$$@@@@>@@@&1kFj&@ @@",
"XXXwNV5@o@@@@>$$>>>>>@>@>@@@       @@@@@#>>>$:>>@>@>##:@=lFj&X.@",
"X@pMB5 @@@@@@>>:>>>>@>@>@>@@@    @@@@@@@#>>>$$>>>@>##@@:o=jFl&@@",
"@rmM5@@@@@>@>>>>>>>>>,,>>>>>    @ @@@@@@@>>>>>>,>>>2>>>:oX=lSk=@",
"rMV4 @ @@>@>@>>>>>>,>>>>>>>@@     @@@@>@>#>>>>>>>>::>>>>@@o@lFl1",
"MV5@  @@@>>@>@>>>>>>,>,,,>>>@    @@@@>@>>:>>>>>>>>,,>>>>  @ =lGl",
"V4  @ @@>@@>@>@>>>>>>,,,>>>>  @@  @@@@>@##:>>>>,>,,,,>>@  o@o;vG"
};
